<svg width="253" height="116" viewBox="0 0 253 116" fill="none" xmlns="http://www.w3.org/2000/svg">
<g id="Signature">
<path d="M28.3775 96.592C23.2575 96.592 18.5215 95.44 14.1695 93.136C9.90284 90.832 6.48951 87.632 3.92951 83.536C1.36951 79.5254 0.0895081 74.9173 0.0895081 69.712C0.0895081 64.9333 1.19884 60.7094 3.41751 57.04C5.72151 53.2854 8.79351 50.3413 12.6335 48.208C16.5588 45.9893 20.8682 44.88 25.5615 44.88C30.8522 44.88 35.2468 46.5867 38.7455 50C42.2442 53.328 43.9935 57.6373 43.9935 62.928C43.9935 67.7067 42.5002 71.5467 39.5135 74.448C36.6122 77.264 32.9002 78.672 28.3775 78.672C26.1588 78.672 24.4948 78.288 23.3855 77.52C22.2762 76.6667 21.7215 75.8133 21.7215 74.96C21.7215 74.6187 21.8495 74.448 22.1055 74.448C22.2762 74.448 22.4042 74.576 22.4895 74.832C22.6602 75.088 23.0015 75.4294 23.5135 75.856C23.9402 76.1973 24.5375 76.5387 25.3055 76.88C26.0735 77.2213 27.0975 77.392 28.3775 77.392C32.6442 77.392 36.0148 76.0693 38.4895 73.424C40.9642 70.6933 42.2015 67.1947 42.2015 62.928C42.2015 58.1493 40.6228 54.1813 37.4655 51.024C34.3935 47.8667 30.4255 46.288 25.5615 46.288C21.2095 46.288 17.3695 47.312 14.0415 49.36C10.7135 51.408 8.11084 54.224 6.23351 57.808C4.35617 61.3067 3.41751 65.2747 3.41751 69.712C3.41751 74.32 4.52684 78.544 6.74551 82.384C8.96418 86.224 11.9082 89.2533 15.5775 91.472C19.3322 93.776 23.5135 94.928 28.1215 94.928C35.2042 94.928 41.2202 93.3493 46.1695 90.192C51.1188 87.12 55.1722 82.896 58.3295 77.52C61.4868 72.0587 63.7908 65.872 65.2415 58.96C66.6922 51.9627 67.4175 44.5813 67.4175 36.816C67.4175 29.648 67.7162 23.76 68.3135 19.152C68.9962 14.4587 70.1055 10.7467 71.6415 8.01601C73.2628 5.20002 75.4388 3.06668 78.1695 1.61601H77.5295C73.8602 1.61601 70.1482 2.12801 66.3935 3.15201C62.6388 4.09068 59.1402 5.49868 55.8975 7.37601C52.7402 9.16801 50.1802 11.3867 48.2175 14.032C46.2548 16.592 45.2735 19.4933 45.2735 22.736C45.2735 24.8693 45.9988 26.6613 47.4495 28.112C48.9002 29.4773 50.6922 30.16 52.8255 30.16C55.0442 30.16 56.9215 29.4347 58.4575 27.984C60.0788 26.448 60.8895 24.4853 60.8895 22.096C60.8895 21.584 60.7615 20.944 60.5055 20.176C60.3348 19.3227 60.2495 18.8533 60.2495 18.768C60.2495 18.3413 60.5055 18.128 61.0175 18.128C61.5295 18.128 61.9135 18.7253 62.1695 19.92C62.4255 21.0293 62.5535 21.84 62.5535 22.352C62.5535 25.168 61.4868 27.5147 59.3535 29.392C57.2202 31.184 54.7028 32.08 51.8015 32.08C48.9855 32.08 46.7242 31.184 45.0175 29.392C43.3108 27.6 42.4575 25.296 42.4575 22.48C42.4575 19.0667 43.6095 15.9947 45.9135 13.264C48.2175 10.5333 51.2042 8.18668 54.8735 6.22401C58.6282 4.26135 62.5962 2.76801 66.7775 1.74401C70.9588 0.720009 74.8842 0.208008 78.5535 0.208008C79.1508 0.208008 79.8335 0.208008 80.6015 0.208008C81.3695 0.208008 81.7535 0.293343 81.7535 0.464012L79.9615 2.38401C77.4868 5.02935 75.6522 8.44268 74.4575 12.624C73.2628 16.72 72.6655 21.5413 72.6655 27.088C72.6655 27.5147 72.7082 28.5813 72.7935 30.288C72.8788 31.9093 72.9642 33.7867 73.0495 35.92C73.1348 37.968 73.2202 39.8453 73.3055 41.552C73.3908 43.1733 73.4335 44.24 73.4335 44.752C77.9562 44.752 82.1375 43.5573 85.9775 41.168C89.8175 38.7787 93.2308 35.664 96.2175 31.824C99.2895 27.984 101.807 23.8453 103.77 19.408C105.476 15.9947 107.055 12.9653 108.506 10.32C110.042 7.67468 111.706 5.58401 113.498 4.04801C115.29 2.51201 117.423 1.74401 119.898 1.74401C121.178 1.74401 122.628 2.17068 124.25 3.02401C125.956 3.79201 126.81 4.77334 126.81 5.96801C126.81 6.48001 126.596 6.73602 126.17 6.73602L124.634 5.07201C123.524 3.96268 122.287 3.40801 120.922 3.40801C118.106 3.40801 115.631 6.13868 113.498 11.6C112.644 13.8187 111.706 15.952 110.682 18C109.743 20.048 108.719 21.968 107.61 23.76C105.391 27.4293 102.703 30.8427 99.5455 34C96.3882 37.1573 92.9322 39.76 89.1775 41.808C85.4228 43.856 81.5402 45.0933 77.5295 45.52C81.6255 45.6907 84.8255 46.8 87.1295 48.848C89.4335 50.8107 91.3108 53.2427 92.7615 56.144C94.2122 59.0453 95.6628 62.032 97.1135 65.104C98.2228 67.408 99.5455 69.8827 101.082 72.528C102.618 75.088 104.239 77.52 105.946 79.824C107.738 82.128 109.53 83.9627 111.322 85.328C113.114 86.7787 114.82 87.504 116.442 87.504C118.319 87.504 119.684 87.12 120.538 86.352C121.391 85.584 121.86 84.432 121.946 82.896C122.031 82.64 122.074 82.384 122.074 82.128C122.074 81.872 122.116 81.616 122.202 81.36C122.287 80.5067 122.543 80.08 122.97 80.08C123.738 80.08 124.122 81.1893 124.122 83.408C124.122 87.248 121.007 89.168 114.778 89.168C110.34 89.168 106.628 88.1867 103.642 86.224C100.655 84.2613 98.1802 81.5733 96.2175 78.16C94.2548 74.6614 92.4628 70.736 90.8415 66.384C88.7082 60.5814 86.2762 55.9307 83.5455 52.432C80.8148 48.9333 77.4442 46.7573 73.4335 45.904C73.1775 56.3147 71.3002 65.3174 67.8015 72.912C64.3882 80.5067 59.3962 86.352 52.8255 90.448C46.2548 94.544 38.1055 96.592 28.3775 96.592Z" fill="#191970"/>
<path d="M144.975 82.672C142.383 82.672 140.127 82.288 138.207 81.52C136.319 80.72 134.847 79.616 133.791 78.208C132.767 76.768 132.255 75.088 132.255 73.168V72.64C132.255 70.976 132.607 69.6 133.311 68.512C134.015 67.424 134.863 66.592 135.855 66.016C136.879 65.408 137.823 65.024 138.687 64.864V64.24C137.823 63.984 136.927 63.568 135.999 62.992C135.103 62.416 134.351 61.632 133.743 60.64C133.167 59.648 132.879 58.432 132.879 56.992V56.464C132.879 54.64 133.391 53.088 134.415 51.808C135.471 50.496 136.911 49.488 138.735 48.784C140.559 48.08 142.639 47.728 144.975 47.728C147.343 47.728 149.423 48.08 151.215 48.784C153.039 49.488 154.463 50.496 155.487 51.808C156.543 53.088 157.071 54.64 157.071 56.464V56.992C157.071 58.432 156.783 59.648 156.207 60.64C155.631 61.632 154.895 62.416 153.999 62.992C153.103 63.568 152.207 63.984 151.311 64.24V64.864C152.207 65.024 153.151 65.408 154.143 66.016C155.135 66.592 155.967 67.424 156.639 68.512C157.343 69.6 157.695 70.976 157.695 72.64V73.168C157.695 75.088 157.183 76.768 156.159 78.208C155.135 79.616 153.663 80.72 151.743 81.52C149.855 82.288 147.599 82.672 144.975 82.672ZM144.975 79.168C147.695 79.168 149.839 78.64 151.407 77.584C153.007 76.528 153.807 74.992 153.807 72.976V72.592C153.807 70.576 153.023 69.04 151.455 67.984C149.887 66.928 147.727 66.4 144.975 66.4C142.255 66.4 140.111 66.928 138.543 67.984C136.975 69.04 136.191 70.576 136.191 72.592V72.976C136.191 74.992 136.975 76.528 138.543 77.584C140.143 78.64 142.287 79.168 144.975 79.168ZM144.975 62.896C147.535 62.896 149.535 62.416 150.975 61.456C152.447 60.464 153.183 59.072 153.183 57.28V56.896C153.183 55.072 152.447 53.68 150.975 52.72C149.503 51.728 147.503 51.232 144.975 51.232C142.447 51.232 140.447 51.728 138.975 52.72C137.503 53.68 136.767 55.072 136.767 56.896V57.28C136.767 59.072 137.503 60.464 138.975 61.456C140.447 62.416 142.447 62.896 144.975 62.896Z" fill="#191970"/>
<path d="M70.325 115V87H81.045C82.725 87 84.2183 87.3334 85.525 88C86.8583 88.64 87.9117 89.56 88.685 90.76C89.4583 91.96 89.845 93.4134 89.845 95.12V95.64C89.845 97.32 89.445 98.7733 88.645 100C87.8717 101.2 86.8183 102.12 85.485 102.76C84.1517 103.4 82.6717 103.72 81.045 103.72H73.685V115H70.325ZM73.685 100.68H80.685C82.4717 100.68 83.885 100.24 84.925 99.36C85.965 98.4533 86.485 97.1867 86.485 95.56V95.16C86.485 93.5333 85.965 92.28 84.925 91.4C83.9117 90.4933 82.4983 90.04 80.685 90.04H73.685V100.68Z" fill="#191970"/>
<path d="M102.883 115.56C100.91 115.56 99.1634 115.147 97.6434 114.32C96.1501 113.493 94.9768 112.333 94.1234 110.84C93.2968 109.32 92.8834 107.533 92.8834 105.48V104.96C92.8834 102.933 93.2968 101.16 94.1234 99.64C94.9768 98.12 96.1501 96.9467 97.6434 96.12C99.1634 95.2933 100.91 94.88 102.883 94.88C104.857 94.88 106.59 95.2933 108.083 96.12C109.603 96.9467 110.777 98.12 111.603 99.64C112.457 101.16 112.883 102.933 112.883 104.96V105.48C112.883 107.533 112.457 109.32 111.603 110.84C110.777 112.333 109.603 113.493 108.083 114.32C106.59 115.147 104.857 115.56 102.883 115.56ZM102.883 112.72C104.963 112.72 106.617 112.067 107.843 110.76C109.097 109.427 109.723 107.64 109.723 105.4V105.04C109.723 102.8 109.097 101.027 107.843 99.72C106.617 98.3867 104.963 97.72 102.883 97.72C100.83 97.72 99.1768 98.3867 97.9234 99.72C96.6701 101.027 96.0434 102.8 96.0434 105.04V105.4C96.0434 107.64 96.6701 109.427 97.9234 110.76C99.1768 112.067 100.83 112.72 102.883 112.72Z" fill="#191970"/>
<path d="M118.57 115V95.44H121.65V97.84H122.21C122.557 96.9867 123.09 96.36 123.81 95.96C124.53 95.56 125.477 95.36 126.65 95.36H128.97V98.24H126.45C125.037 98.24 123.89 98.64 123.01 99.44C122.157 100.213 121.73 101.427 121.73 103.08V115H118.57Z" fill="#191970"/>
<path d="M140.848 115C139.728 115 138.861 114.693 138.248 114.08C137.661 113.467 137.368 112.627 137.368 111.56V98.2H131.488V95.44H137.368V88.48H140.528V95.44H146.928V98.2H140.528V111.08C140.528 111.88 140.915 112.28 141.688 112.28H146.048V115H140.848Z" fill="#191970"/>
<path d="M157.929 115.56C156.569 115.56 155.329 115.32 154.209 114.84C153.089 114.36 152.209 113.667 151.569 112.76C150.929 111.853 150.609 110.747 150.609 109.44C150.609 108.107 150.929 107.013 151.569 106.16C152.209 105.28 153.089 104.627 154.209 104.2C155.329 103.747 156.583 103.52 157.969 103.52H164.569V102.08C164.569 100.693 164.156 99.6 163.329 98.8C162.529 98 161.329 97.6 159.729 97.6C158.156 97.6 156.929 97.9867 156.049 98.76C155.169 99.5067 154.569 100.52 154.249 101.8L151.289 100.84C151.609 99.7467 152.116 98.76 152.809 97.88C153.503 96.9733 154.423 96.2533 155.569 95.72C156.743 95.16 158.143 94.88 159.769 94.88C162.276 94.88 164.223 95.5333 165.609 96.84C166.996 98.12 167.689 99.9333 167.689 102.28V111.12C167.689 111.92 168.063 112.32 168.809 112.32H170.609V115H167.849C166.969 115 166.263 114.76 165.729 114.28C165.196 113.773 164.929 113.107 164.929 112.28V112.08H164.449C164.156 112.587 163.756 113.12 163.249 113.68C162.769 114.213 162.103 114.653 161.249 115C160.396 115.373 159.289 115.56 157.929 115.56ZM158.289 112.84C160.156 112.84 161.663 112.293 162.809 111.2C163.983 110.08 164.569 108.52 164.569 106.52V106.08H158.089C156.836 106.08 155.796 106.36 154.969 106.92C154.169 107.453 153.769 108.267 153.769 109.36C153.769 110.453 154.183 111.307 155.009 111.92C155.863 112.533 156.956 112.84 158.289 112.84Z" fill="#191970"/>
<path d="M174.937 115V87H178.097V115H174.937Z" fill="#191970"/>
<path d="M190.742 115.56C189.382 115.56 188.142 115.32 187.022 114.84C185.902 114.36 185.022 113.667 184.382 112.76C183.742 111.853 183.422 110.747 183.422 109.44C183.422 108.107 183.742 107.013 184.382 106.16C185.022 105.28 185.902 104.627 187.022 104.2C188.142 103.747 189.395 103.52 190.782 103.52H197.382V102.08C197.382 100.693 196.969 99.6 196.142 98.8C195.342 98 194.142 97.6 192.542 97.6C190.969 97.6 189.742 97.9867 188.862 98.76C187.982 99.5067 187.382 100.52 187.062 101.8L184.102 100.84C184.422 99.7467 184.929 98.76 185.622 97.88C186.315 96.9733 187.235 96.2533 188.382 95.72C189.555 95.16 190.955 94.88 192.582 94.88C195.089 94.88 197.035 95.5333 198.422 96.84C199.809 98.12 200.502 99.9333 200.502 102.28V111.12C200.502 111.92 200.875 112.32 201.622 112.32H203.422V115H200.662C199.782 115 199.075 114.76 198.542 114.28C198.009 113.773 197.742 113.107 197.742 112.28V112.08H197.262C196.969 112.587 196.569 113.12 196.062 113.68C195.582 114.213 194.915 114.653 194.062 115C193.209 115.373 192.102 115.56 190.742 115.56ZM191.102 112.84C192.969 112.84 194.475 112.293 195.622 111.2C196.795 110.08 197.382 108.52 197.382 106.52V106.08H190.902C189.649 106.08 188.609 106.36 187.782 106.92C186.982 107.453 186.582 108.267 186.582 109.36C186.582 110.453 186.995 111.307 187.822 111.92C188.675 112.533 189.769 112.84 191.102 112.84Z" fill="#191970"/>
<path d="M213.661 115C212.541 115 211.674 114.693 211.061 114.08C210.474 113.467 210.181 112.627 210.181 111.56V98.2H204.301V95.44H210.181V88.48H213.341V95.44H219.741V98.2H213.341V111.08C213.341 111.88 213.727 112.28 214.501 112.28H218.861V115H213.661Z" fill="#191970"/>
<path d="M224.859 115V95.44H228.019V115H224.859ZM226.459 92.4C225.766 92.4 225.179 92.1733 224.699 91.72C224.246 91.2667 224.019 90.6933 224.019 90C224.019 89.28 224.246 88.6933 224.699 88.24C225.179 87.7867 225.766 87.56 226.459 87.56C227.152 87.56 227.726 87.7867 228.179 88.24C228.632 88.6933 228.859 89.28 228.859 90C228.859 90.6933 228.632 91.2667 228.179 91.72C227.726 92.1733 227.152 92.4 226.459 92.4Z" fill="#191970"/>
<path d="M234.664 115V95.44H237.744V98.76H238.304C238.73 97.8267 239.45 96.9867 240.464 96.24C241.504 95.4667 243.024 95.08 245.024 95.08C246.49 95.08 247.797 95.3867 248.944 96C250.117 96.6133 251.05 97.52 251.744 98.72C252.437 99.92 252.784 101.4 252.784 103.16V115H249.624V103.4C249.624 101.453 249.13 100.04 248.144 99.16C247.184 98.28 245.877 97.84 244.224 97.84C242.33 97.84 240.784 98.4533 239.584 99.68C238.41 100.907 237.824 102.733 237.824 105.16V115H234.664Z" fill="#191970"/>
</g>
</svg>
