<?xml version="1.0" encoding="utf-8"?>

<!DOCTYPE svg PUBLIC "-//W3C//DTD SVG 1.1//EN" "http://www.w3.org/Graphics/SVG/1.1/DTD/svg11.dtd">
<svg version="1.1" id="Layer_1" xmlns="http://www.w3.org/2000/svg" xmlns:xlink="http://www.w3.org/1999/xlink" x="0px" y="0px"
	 viewBox="0 0 1530.758 1715.595" enable-background="new 0 0 1530.758 1715.595" xml:space="preserve">
<g>
	<path d="M1296.291,1595.584c1.983-12.979-7.562-21.074,2.337-39.631c5.619-10.532,17.457-13.129,22.24-9.883
		c3.177,2.156,5.906,0.625,6.004-3.325c0.208-8.365,0.771-16.83-0.19-25.093c-2.655-22.829-39.598-38.942-51.758-14.797
		c-10.986,21.812-1.624,37.52,3.95,47.58c1.701,3.07,1.337,4.132-1.831,4.481c-44.916,4.948-68.606,46.776-95.413,51.263
		c-47.59,7.965-74.476-18.73-76.099-25.015c17.13-3.864,52.811,40.939,116.681-28.832c6.134-6.701,8.85-6.411,30.846-14.594
		c5.272-1.961,4.984,0.481-0.19-26.413c-2.677-13.912,10.367-74.105,68.4-45.668c2.947-18.611-17.703-35.223-33.937-44.991
		c-7.056-4.246-4.857,12.169-4.843-255.108c0.001-11.549,3.352-20.061,14.849-21.578c9.445-1.247,11.605,0.201,14.181,3.378
		c16.547,20.406,30.508,8.347,35.505,17.559c3.91,7.208-5.027,5.086-11.379,8.26c-21.744,10.865,14.789,50.622,31.792,13.534
		c2.149-4.689,1.951-9.009-9.414-27.145c-48.976-78.161-88.444-92.35-80.313-160.163c2.236-18.651,17.38-26.934,36.11-28.192
		c5.085-0.341,17.558,7.343,21.784,17.611c1.999,4.856,1.05,9.512-4.442,8.386c-16.471-3.378-21.184-8.003-27.678,0.36
		c-16.604,21.381-14.365,38.65,16.893,85.046c35.635,52.892,48.395,57.123,51.765,71.976c3.497,15.411,7.221,18.819,6.397,37.457
		c-0.479,10.856-21.443,41.208-55.062,14.505c-6.465-5.135-10.846-11.599-12.428-19.813c-0.358-1.857-0.064-4.197-3.172-3.966
		c-7.999,0.593-7.234,4.992-7.235,7.785c-0.01,70.677-0.842,66.745,2.056,66.978c2.873,0.231,2.176-2.224,2.489-3.813
		c2.553-12.936,16.681-14.166,29.672-12.251c20.102,2.962,30.233,30.645,26.371,53.62c-1.484,8.83-8.081,16.287-15.058,25.177
		c0.602,2.209,2.276,1.723,3.529,2.004c21.097,4.747,26.45,36.556,13.211,54.545c-7.344,9.979-16.698,10.128-19.835,10.831
		c-4.775,1.07-3.177,2.15,1.562,10.09c4.254,7.128,14.464,25.432,10.229,32.585c-0.782,1.321,0.296,2.697,0.705,3.994
		c11.854,37.547,4.349,159.902,4.349,159.902c2.157,8.201,2.145,16.559,2.067,24.944c-0.28,30.249,3.082,38.611-11.327,38.615
		c-282.213,0.076-304.254,9.301-347.645-39.37c-8.651,10.423-42.24,28.842-67.531-8.676c-3.046-4.518-3.081-4.504-8.109-2.891
		c-11.033,3.538-10.963,4.654-14.156-1.363c-1.872-3.527-3.087-7.605-6.159-4.795c-4.724,4.322-19.431,21.621-45.117,29.288
		c-19.141,5.715-15.171-0.03-4.522-22.336c2.372-4.968,2.196-7.452-1.113-21.536c-0.517-2.199-2.129-6.404-4.944-5.726
		c-1.81,0.436-1.726,2.453-2.059,5.186c-7.438,61.103-150.816,68.979-166.812,3.478c-1.32-5.407-0.471-8.327-2.71-8.657
		c-5.263-0.774-14.247,23.598,0.974,46.359c8.848,13.232-27.829,0.716-50.444-20.674c-4.659-4.407-4.976-6.131-7.151-5.996
		c-2.898,0.18-2.006,3.442-3.01,5.221c-7.539,13.365-23.108-5.201-23.912,3.301c-1.621,17.15-29.681,22.846-46.989,21.095
		c-5.949-0.602-10.836-3.781-15.562-7.194c-4.227-3.052-4.311-3.09-7.544,0.836c-36.817,44.719-98.951,34.455-343.786,34.461
		c-3.381,0-6.699,0.234-9.451-2.577c-2.63-2.687-4.215-5.375-4.153-9.405c1.94-127.465-7.578-219.46,21.828-256.965
		c-2.996-2.754-20.034-0.212-27.198-20.337c-10.351-29.076,7.719-41.808,20.679-51.413c-1.181-4.138-16.148-12.128-15.246-32.021
		c0.691-15.236-2.097-16.566,3.993-25.946c11.71-18.036,37.035-26.148,51.141-8.475c7.947,9.956,6.256,9.177,6.123-61.724
		c-0.008-4.293-4.369-7.533-8.339-6.388c-2.649,0.764-2.102,4.43-6.382,13.799c-9.411,20.601-23.731,19.205-37.327,18.794
		c-22.334-0.675-29.93-27.728-23.964-48.406c7.162-24.825,37.553-61.395,53.799-80.593c13.202-15.6,21.867-33.592,28.148-52.915
		c3.01-9.26,2.785-17.962-2.289-26.4c-8.75-14.549-7.167-14.691-22.785-14.331c-5.308,0.123-7.637,8.12-14.84,1.995
		c-1.442-1.226-1.749-2.367-0.997-4.111c3.927-9.11,8.982-17.216,19.766-18.87c24.984-3.831,36.635,15.136,38.99,40.57
		c2.813,30.372-9.729,54.483-47.138,104.205c-33.959,45.137-39.415,45.049-39.68,54.567c-0.305,10.95-5.717,9.215-3.837,14.554
		c3.503,9.945,8.387,17.606,18.902,16.351c19.291-2.302,23.25-19.143,17.673-23.654c-4.663-3.773-6.812-9.795-12.411-5.584
		c-3.773,2.837-10.671-5.743-4.875-7.252c6.005-1.563,18.241-5.25,24.768-6.776c6.129-1.432,3.744-14.031,17.319-14.773
		c15.691-0.857,22.866,6.712,23.504,17.759c0.661,11.461-0.105,15.945,0.371,249.388c0.027,13.01-7.189,8.185-27.105,28.475
		c-6.676,6.801-14.197,17.203-14.42,25.95c2.088,1.282,3.362-0.028,4.672-0.716c12.528-6.575,41.416-13.536,54.806,7.794
		c13.679,21.789,9.33,44.272,8.115,56.725c-0.697,7.143-1.487,9.62,1.914,9.704c20.613,0.504,52.026,29.447,66.989,43.633
		c5.265,4.992,5.635,4.104,33.443,8.783c5.043,0.848,4.496,0.419,41.299-8.727c27.894-6.931-48.371,65.597-117.241-8.009
		c-19.492-20.833-60.738-16.385-49.262-24.909c7.762-5.767,10.849-28.971,8.169-41.962c-4.25-20.605-29.319-21.03-42.687-8.754
		c-4.876,4.478-13.368,15.985-13.368,22.128c-0.002,23.573-1.258,23.818,5.746,23.567c24.316-0.873,29.51,26.143,26.8,40.555
		c-0.507,2.695-1.324,5.406-0.919,8.133c1.815,0.957,2.773-0.435,3.868-1.098c27.757-16.791,62.005,5.696,102.167,26.32
		c15.946,8.189,25.308,8.833,56.987,14.371c32.402,5.665,73.92-30.117,76.83-36.668c1.656-3.728,16.412,2.01,43.522,1.073
		c84.548-2.924,133.95-33.952,135.827-39.238c-16.205,6.401-49.48,22.373-90.356,24.087c-73.612,3.086-167.787,3.499-252.516-90.912
		c-16.818-18.739-26.914-40.767-35.366-63.857c-26.796-73.203-16.249-135.127-16.249-135.127
		c-7.702-16.51,6.331-112.248,62.785-254.74c3.298-8.324,1.954-16.928,1.463-25.39c-0.261-4.488-7.215-6.7-11.592-4.078
		c-12.165,7.287-13.214,11.011-17.781,6.649c-37.912-36.212-62.767-80.745-61.911-133.145c0.032-1.939,1.231-4.927-1.815-5.527
		c-3.016-0.593-3.088,2.519-3.862,4.403c-5.268,12.827-18.521,16.313-32.379,17.29c-4.488,0.316-6.252-0.551-1.191,15.526
		c5.705,18.123-5.947,36.74-24.122,47.326c-4.042,2.354-25.779,2.426-36.746-13.809c-3.794-5.616-6.984-25.778,5.645-36.607
		c0.854-0.732,1.577-1.767,1.26-3.432c-10.137-1.445-19.43-1.235-27.409,6.943c-14.819,15.19-21.356,42.428-4.704,57.161
		c14.213,12.575,41.94,18.944,60.726,21.143c25.503,2.985,49.484,35.639,37.704,70.551c-13.018,38.583-69.076,89.386-72.866,91.927
		c-1.575,1.056-3.937-0.799-2.728-2.779c0.002-0.003,25.178-32.761,39.904-56.672c14.002-22.736,22.381-40.087,16.057-62.1
		c-3.896-13.563-14.374-19.586-28.382-20.669c-25.886-2.002-33.749,21.15-31.184,27.442c8.464,20.765,14.734,22.924,25.257,18.518
		c7.841-3.283,14.127-9.806,16.131-11.196c3.491-2.421,4.871,1.887,4.682,6.175c-1.528,34.559-71.581,41.939-70.808-24.208
		c0.081-6.96,3.755-12.913,7.296-18.726c5.266-8.644,5.273-8.624-4.108-12.799c-17.481-7.78-29.97-20.11-32.764-39.609
		c-9.099-63.501,28.202-87.836,59.488-91.446c34.451-3.975,30.824,19.914,31.144-17.283c0.042-4.844-2.389-3.283-15.314-0.427
		c-71.242,15.741-100.106-92.117-55.568-123.697c15.496-10.987,21.834-6.88,19.559-13.935c-9.943-30.828-10.634-32.768-9.09-39.122
		c5.097-20.98,14.911-34.597,37.462-34.93c17.441-0.258,32.933,10.171,32.725,28.126c-0.128,11.025-8.205-3.551-21.968-8.409
		c-11.668-4.118-21.259,9.412-24.774,20.652c-8.898,28.456,55.933,42.633,61.553-3.471c5.084-41.708-57.704-106.559-57.539-112.958
		c1.647-0.944,2.397,0.26,3.168,0.958c28.492,25.833,64.547,62.674,73.871,100.218c6.861,27.63-9.573,54.75-37.064,62.71
		c-20.356,5.894-28.548-1.067-54.21,14.627c-24.633,15.065-25.029,53.304,3.255,68.645c3.031,1.644,0.827,1.323,21.285,1.323
		c0.038-3.747-2.374-5.61-4.179-7.447c-11.977-12.194-10.216-42.956,21.103-47.705c12.281-1.862,35.313,13.34,37.625,38.744
		c1.427,15.675-8.798,24.955-1.204,24.895c17.067-0.134,11.403-2.891,33.56,19.226c2.492,2.488,5.321,4.704,5.525,1.188
		c3.067-52.722,13.422-93.079,60.387-136.791c3.407-3.171,3.379-3.667,7.296-0.384c13.064,10.95,23.984,10.921,24.143-5.776
		c0.276-29.026-61.007-146.867-64.586-251.056c-1.271-36.985-8.335-92.847,13.92-155.383
		c27.822-78.182,89.773-123.029,170.255-145.918c10.695-3.042,18.572-8.649,47.769-9.551c80.575-2.49,98.462,2.085,130.692,12.387
		c23.047,7.367,23.192,8.982,26.084,8.441c-2.141-3.926-47.565-37.189-143.606-35.775c-22.731,0.335-26.742,5.803-32.946-1.894
		c-17.528-21.748-36.128-28.921-60.053-31.522c-9.519-1.035-2.498-3.904-17.289-2.198c-35.954,4.148-79.547,25.987-111.226,43.718
		c-16.254,9.097-19.084,4.175-43.973-4.401c-11.905-4.102,2.531,11.296-5.411,32.814c-5.188,14.056-18.484,17.193-25.261,15.683
		c-6.719-1.497-5.58-2.014-5.507,24.628c0.033,11.966,15.203,27.33,28.566,29.311c26.345,3.904,34.669-29.119,24.408-50.446
		c-2.051-4.262-4.338-8.411-6.744-13.05c29.115-1.919,59.745-25.137,71.885-36.948c20.035-19.492,54.777-19.706,78.168-10.157
		c12.507,5.106,25.683,16.738,24.537,19.476c-1.233,2.948-7.432,1.012-10.963-0.727c-67.251-33.131-95.235,34.904-127.969,43.004
		c-28.992,7.174,8.958,15.579-16.634,63.89c-8.061,15.217-25.334,19.791-35.808,16.809c-26.165-7.45-27.923-8.879-25.67-0.526
		c3.669,13.604,19.69,28.927,31.933,35.923c12.499,7.142,8.902-6.064,8.847,254.345c-0.001,3.385,0.059,6.8-0.335,10.15
		c-1.57,13.326-15.131,19.972-26.856,13.229c-12.172-7-11.203-14.651-20.298-14.366c-4.294,0.134-13.826-0.607-16.756-4.688
		c-5.011-6.98,5.3-4.768,11.766-7.46c21.423-8.921-13.66-55.291-32.966-11.71c-2.536,5.724,8.133,21.737,12.458,28.307
		c47.763,72.538,85.413,91.287,78.082,153.684c-3.598,30.622-34.436,37.196-47.016,26.817c-8.474-6.991-17.505-24.274-6.601-22.221
		c13.388,2.521,22.696,13.172,32.393-5.925c9.822-19.342,12.304-33.476-39.419-104.238c-31.03-42.453-34.042-40.657-36.798-52.522
		c-4.468-19.234-10.03-40.866,14.259-53.884c2.638-1.414,18.989-1.191,24.296-0.284c12.55,2.145,19.789,13.729,21.969,25.509
		c0.609,3.293,1.895,4.809,5.479,4.713c9.309-0.25,8.075,0.625,8.099-7.95c0.174-64.193,1.559-67.911-5.291-58.447
		c-18.181,25.122-55.785-3.52-55.826-18.02c-0.079-28.293-1.333-26.734,9.658-43.055c2.085-3.096,4.987-5.657,6.37-9.237
		c-3.593-2.139-18.893-0.918-23.375-25.419c-5.018-27.436,8.827-32.998,28.56-43.865c-20.441-29.722-21.385-85.482-21.34-129.432
		c0.143-140.321-4.254-137.973,12.254-137.973c247.264-0.001,309.742-9.627,345.366,35.998c1.378,1.765,2.511,2.266,4.321,0.63
		c1.096-0.991,8.423-7.035,13.293-7.781c22.333-3.423,39.765-1.044,51.901,19.516c2.648,4.485,1.916,4.247,7.485,2.59
		c11.548-3.438,10.649-5.001,13.76,0.589c3.625,6.513,3.398,8.705,7.479,4.885c4.593-4.3,22.184-24.167,52.357-30.553
		c1.471-0.311,3.108-1.438,4.336,0.372c1.113,1.64,1.043,3.399-0.065,5.048c-5.088,7.574-6.532,16.155-6.975,25.022
		c-0.04,0.79,0.041,1.729-0.346,2.338c-3.915,6.176-0.034,11.415,2.008,16.833c0.588,1.561,1.978,2.578,3.827,2.161
		c1.924-0.434,1.427-2.207,1.532-3.448c3.275-38.691,57.419-57.58,97.696-50.398c57.597,10.27,65.482,29.845,70.459,51.601
		c0.849,3.712,3.642,1.855,4.105,0.855c9.714-21.017,4.47-25.635-3.081-42.76c-2.636-5.979-3.72-8.811,1.165-7.892
		c19.722,3.712,37.431,14.81,51.923,29.067c1.377,1.354,2.368,3.265,4.578,3.628c2.021-0.715,2.276-14.274,14.764-10.191
		c0,0,6.518,2.564,11.087,4.309c1.044-20.002,35.034-28.247,41.944-26.837c13.844,2.824,22.783,11.505,25.409,12.756
		c8.96,4.27,2.441-8.518,22.905-20.955c21.588-13.119,59.484-17.515,84.542-17.46c261.924,0.569,253.1-6.136,253.1,15.162
		c0.005,165.082,0.744,155.229-1.633,158.764c-0.985,1.464-0.27,3.144,0.297,4.609c2.704,6.99-1.216,37.804-2.886,42.022
		c-6.4,16.169,6.896,7.3-14.553,43.11c-1.106,1.847-2.719,3.47-2.915,5.857c1.513,1.486,3.559,1.563,5.417,2.088
		c28.393,8.032,27.804,35.948,20.514,51.37c-9.994,21.141-29.669,5.317-14.73,22.359c19.748,22.528,11.034,69.862-18.355,71.343
		c-12.989,0.655-24.043-0.23-27.672-12.752c-0.563-1.944-0.422-3.559-2.388-3.578c-2.416-0.024-2.412,2.416-2.414,5.244
		c-0.053,75.422-1.869,67.723,5.78,67.813c4.56,0.054,6.717,0.518,6.984-3.104c1.104-14.991,10.4-23.048,23.688-27.528
		c31.043-10.465,55.244,22.049,33.221,63.6c-13.617,25.692-40.895,60.065-49.807,70.073c-14.2,15.948-34.734,54.61-23.31,74.785
		c4.333,7.653,7.984,15.901,16.375,13.467c13.491-3.914,23.718-7.816,23.031,2.294c-1.343,19.78-38.406,30.47-53.042,3.633
		c-28.251-51.8,30.298-117.516,70.948-165.613c5.817-6.882,4.906-9.552,12.803-27.457c1.373-3.113,1.876-5.955-3.336-13.692
		c-18.787-27.895-56.164,23.157-19.833,23.189c3.539,0.003,11.227,9.983-15.721,10.328c-11.53,0.148-6.277,18.033-29.456,16.746
		c-12.042-0.668-16.499-10.066-16.498-22.21c0.043-341.275-9.38-220.961,35.338-282.025c3.486-4.76,4.693-9.964,3.408-15.61
		c-0.923-0.598-1.676-0.484-2.421-0.117c-9.587,4.723-19.879,5.552-30.322,5.388c-26.599-0.417-37.759-42.748-35.544-54.786
		c8.097-44.001,11.313,2.874-64.886-68.96c-7.058-6.654-9.651-4.407-23.286-7.692c-31.186-7.514-49.652,14.316-59.102,7.064
		c-0.188-6.365,42.593-42.323,93.798-15.001c33.596,17.926,37.809,33.843,50.804,35.712c7.069,1.017,21.409,4.034,27.559,7.492
		c2.683,1.509,2.799,2.84,1.157,5.273c-8.358,12.385-11.239,25.841-7.063,40.325c7.299,25.313,39.321,26.509,54.677-8.735
		c0.671-1.541,0.341-21.542,0.312-22.682c-0.102-4.031-1.043-4.657-5.082-4.412c-11.424,0.693-19.604-4.229-24.276-14.689
		c-7.506-16.806-0.643-29.049-2.379-35.548c-3.779,1.171-6.619,3.729-9.665,5.814c-26.881,18.393-102.06-37.833-124.493-40.219
		c-23.604-2.51-32.946-7.755-55.488-0.2c-19.478,6.528-36.113,17.514-49.688,32.963c-1.682,1.914-3.424,1.654-5.364,1.501
		c-67.085-5.296-119.66,1.901-174.857,35.996c3.209,0.904,4.909-0.631,6.658-1.39c167.787-72.81,476.324,8.891,370.687,391.64
		c-36.073,130.7-47.796,112.573-46.666,156.606c0.125,4.882,6.547,7.407,11.155,4.703c12.857-7.543,13.759-11.616,18.191-7.537
		c67.627,62.238,60.716,122.859,62.684,138.757c6.573-5.662,9.224-13.869,25.831-19.264c5.141-1.67,10.588-1.613,16.318-2.682
		c-1.454-12.076-6.181-17.64-4.113-27.391c5.118-24.131,18.317-38.96,42.953-35.726c12.064,1.584,19.647,14.748,23.527,26.287
		c2.777,8.257-17.439,28.359-6.862,28.835c24.151,1.088,35.432-16.247,36.895-39.245c2.766-43.492-66.92-42.304-77.956-48.217
		c-72.706-38.953-13.846-106.992,43.706-162.295c3.351,3.679,0.936,5.684-2.705,10.408c-16.659,21.619-39.573,52.603-49.833,77.863
		c-5.93,14.599-8.376,46.845,17.216,53.995c25.992,7.262,38.772-9.03,41.135-19.024c2.1-8.883-6.978-23.67-16.594-26.445
		c-13.051-3.767-30.618,25.055-30.035,6.422c0.749-23.923,26.454-28.663,41.873-24.766c23.626,5.97,32.849,34.354,27.221,56.442
		c-3.573,14.023-14.993,19.109-5.822,20.564c30.343,4.813,43.063,50.63,36.546,82.59c-6.501,31.887-37.183,51.399-57.5,51.14
		c-3.615-0.046-14.256,3.418-26.409-1.743c-5.029-2.136-6.194-1.167-4.831,3.771c1.709,6.193,0.557,12.178-0.568,18.74
		c10.812-0.344,20.858-9.929,51.952,3.289c34.548,14.686,41.792,44.708,38.641,81.939c-3.193,37.737-40.18,45.369-42.703,49.248
		c14.098,13.058,19.237,46.351-1.516,65.885c-13.531,12.736-55.237,17.351-56.87-23.927c-0.049-1.244,0.148-2.504,1.776-2.531
		c8.407-0.144,1.186,6.163,14.048,13.478c14.736,8.381,27.756-3.759,30.999-23.132c0.584-3.491-3.926-16.618-17.564-20.375
		c-15.26-4.204-37.185-1.083-42.535,19.019c-10.481,39.377,20.092,68.126,51.672,115.48c10.833,16.245-72.68-51.602-74.591-111.349
		c-1.628-50.94,82.912-51.281,89.848-56.9c2.786-2.256,5.632-4.443,8.337-6.792c20.834-18.094,16.208-51.368-6.98-64.704
		c-5.872-3.377-12.005-1.89-18.079-1.848c-1.689,0.012-2.019,1.658-2.046,3.147c-0.171,9.444,23.955,28.58-0.169,44.522
		c-27.352,18.077-55.879-4.734-57.047-33.748c-0.081-2.017,0.447-3.773,3.508-16.306c1.442-5.904,1.449-5.958-4.282-6.637
		c-13.326-1.577-24.355-7.17-32.288-18.262c-2.774-3.88-3.97-3.179-4.401-1.153c-1.47,6.914,7.247,65.424-50.681,126.367
		c-13.988,14.717-13.023,13.367-17.697,9.745c-15.268-11.832-22.635-6.975-23.469,2.358c-0.908,10.16-4.02,4.31,40.477,133.35
		c14.217,41.229,21.746,88.038,25.616,131.142c1.09,12.128-3.342,5.552-1.135,14.442c3.113,12.54,17.844,194.323-138.025,261.768
		c-51.743,22.389-82.551,28.602-159.407,25.247c-45.764-1.998-83.199-18.733-91.167-20.76
		c-23.784-6.057,68.124,46.259,164.742,33.557c4.937-0.649,8.348,0.323,11.74,4.574c15.857,19.873,37.038,29.546,62.205,30.968
		c7.406,0.419,18.069,14.43,111.073-33.769c17.527-9.084,18.14-10.835,23.09-10.589c9.545,0.475,25.013-3.641,38.14,8.776
		C1294.078,1595.654,1294.809,1596.08,1296.291,1595.584z M1106.203,1643.364c-2.198-0.502-4.372-0.567-6.519,0
		c-0.709-2.232-2.825-1.94-4.448-2.344c-43.844-10.924-39.985-30.871-67.119-27.835c-2.235,0.252-7.751-0.352-4.939,6.233
		C1030.292,1636.074,1092.041,1643.364,1106.203,1643.364z M1223.886,1447.893c21.706-41.54,31.221-96.125,30.133-97.595
		c-3.891-5.256,0.852-10.468,0.789-21.524c-1.338-235.534-109.125-314.477-52.995-352.036c9.701-6.491,18.527,0.423,26.633,8.834
		c3.025,3.139,3.689,2.664,7.759-2.191c49.361-58.879,46.107-128.633,41.628-144.211c-1.96-6.816,2.637-1.465,0.447-10.079
		c-40.59-159.594-50.323-78.606-72.019-88.407c-15.191-6.863-23.851-23.869-20.09-40.06
		c28.429-122.361,63.927-143.298,68.184-291.591c0.365-12.708,1.739-25.496-1.677-38.059c-0.308-1.133-0.779-2.778,0.095-3.448
		c5.98-4.581-3.236-41.259-7.686-53.715c-58.682-164.281-253.49-205.703-405.844-115.59c-7.245,4.285-14.498,3.551-21.935,3.177
		c-3.344-0.168-5.515-3.22-6.941-6.067c-1.307-2.609,1.653-3.713,2.913-5.252c58.077-70.913-94.663-108.467-105.444-34.188
		c-2.99,20.602,7.509,32.144,11.537,39.087c5.204,8.973-6.151,6.139-15.364,6.783c-5.211,0.364-9.555-1.178-13.957-4.026
		C529.602,93.952,276.873,167.502,276.053,389.691c-0.78,211.28,111.417,329.373,51.459,351.003
		c-23.272,8.396-33.538-70.286-75.111,90.539c-3.008,11.635,2.266,5.472,0.517,15.527c-4.671,26.854,0.349,89.772,40.602,136.475
		c4.829,5.603,4.844,5.59,10.253,0.886c9.072-7.888,15.452-11.958,21.828-8.935c14.706,6.973,22.748,22.914,19.012,38.661
		c-11.539,48.649-55.314,174.956-55.314,174.956c-7.765,45.644-14.236,91.407-13.16,137.896
		c5.375,232.067,255.581,287.223,407.798,194.31c12.589-7.684,12.609-7.505,27.317-7.286c4.418,0.066,11.2,5.003,8.072,8.637
		c-7.256,8.429-9.739,19.048-13.379,29.134c-2.53,7.01,4.013,33.529,28.51,43.371c35.852,14.405,122.381-3.807,78.199-72.691
		c-1.207-1.882-3.659-3.674-2.248-6.281c1.977-3.655,5.871-1.357,18.383-2.122c3.973-0.243,7.24,0.964,10.583,3.113
		C978.445,1606.284,1164.912,1560.755,1223.886,1447.893z M1140.455,1644.843c21.76,0-8.78,0.484,154.152-2.058
		c56.941-0.888,52.003,0.45,52.318-5.321c9.366-171.487-0.275-244.213-38.987-249.352c-9.638-1.28-6.663,6.299-7.343,13.127
		c-1.688,16.969,33.219,23.872,36.065,80.302c0.523,10.368-4.243,9.776-6.89,7.693c-2.549-2.006-11.038-13.329-26.779-17.109
		c-9.471-2.274-16.658,2.505-24.014,6.982c10.396-0.093,49.765-23.908,60.257,53.24c0.468,3.437,0.792,0.062-4.531,30.047
		c-0.86,4.848-3.893,2.744-16.052,1.408c-20.181-2.217-1.172,65.337-14.535,56.158c-40.815-28.029-24.807-29.961-108.759,11.394
		c-14.53,7.158-32.923,10.251-49.131,11.636C1144.278,1643.157,1142.235,1642.92,1140.455,1644.843z M245.966,239.762
		c-20.268,2.566-34.671-0.923-45.269-22.197c-6.679-13.409-9.895-31.704-8.972-37.397c6.135-37.815,1.372-30.433,22.088-28.045
		c3.371,0.389,7.661-3.335,6.431-5.747c-2.566-5.03,1.73-5.593,1.504-24.693c-0.624-52.953-0.537-15.823,40.97-6.16
		c6.832,1.59,4.006,2.301,69.574-29.543c20.807-10.105,39.008-12.244,52.567-14.729c-2.414-0.33-4.795-0.357-7.177-0.326
		c-37.542,0.482-41.204,0.496-187.161,2.655c-7.686,0.114-6.301-3.465-8.007,38.725c-1.713,42.361-8.157,197.872,23.271,204.068
		c1.483,0.292,2.487,1.099,3.421,2.19c4.13,4.825,9.774,7.482,15.216,10.369c7.544,4.003,5.299-4.357,5.707-18.416
		c0.083-2.846-0.981-4.825-3.104-6.692c-36.422-32.029-31.19-74.82-28.94-75.851c2.292-1.051,3.904,1.446,5.583,2.728
		C215.129,239.448,235.452,249.999,245.966,239.762z M1147.693,71.194c83.34,17.564,109.845,57.878,130.279,42.476
		c35.474-26.737,31.119-27.576,31.03,8.658c-0.03,12.134-3.609,7.518-1.975,13.224c2.297,8.02,4.59,23.204,17.714,14.816
		c5.898-3.77,6.176-4.709,10.477,7.101c11.05,30.351-3.433,62.93-14.223,75.275c3.588-1.195,6.207-3.582,9.036-5.654
		c13.163-9.643,9.809,45.58-26.165,77.712c-2.018,1.802-4.541,2.309-3.06,16.787c1.12,10.954,16.54,1.43,24.642-4.914
		c29.823-23.351,27.248-110.02,21.543-239.113c-0.243-5.508,12.069-3.921-158.103-6.34
		C1175.16,71.029,1161.425,71.194,1147.693,71.194z M380.68,1643.635c-6.047-1.505-15.12-1.778-36.706-9.761
		c-52.983-19.594-56.392-33.678-80.624-31.889c-25.654,1.895-36.997,27.62-43.12,19.354c-3.244-4.38,3.573-51.646,0.154-53.666
		c-10.204-6.026-8.717-3.983-17.375-2.297c-7.51,1.462-6.011,0.158-11.32-33.815c-1.348-8.628,4.413-32.565,15.791-45.977
		c0.187-0.22,0.071-0.696,0.172-2.118c-8.869,6.689-9.492,7.685-11.702,6.551c-3.463-1.777-5.868-42.252,20.689-69.92
		c9.968-10.384,11.554-1.875,10.713-27.608c-0.153-4.693-0.723-5.114-4.717-2.794c-46.876,27.234-37.979,65.497-40.273,162.975
		c-2.336,99.23,2.86,89.24,7.412,89.316C381.104,1645.155,372.473,1644.851,380.68,1643.635z M1302.944,439.112
		c1.15,0.036,1.777-0.623,2.112-1.689c2.752-8.783,10.56-10.007,17.894-11.746c3.283-0.779,7.637,5.001,3.444,8.231
		c-2.439,1.879-8.878,6.221-8.724,15.451c0.057,3.463,2.842,3.83,8.181,8.096c8.661,6.921,44.748-26.591-3.669-57.8
		c-6.764-4.36-6.802-4.791-6.011-11.448c0.427-3.591,4.143-0.791,11.766-4.164c18.482-8.179,36.05-41.907-20.925-40.286
		c-6.229,0.177-6.346,0.157-6.363,6.395C1300.396,443.551,1299.929,439.017,1302.944,439.112z M1309.898,1371.89
		c41.228-1.472,40.811-20.521,32.29-29.997c-10.139-11.276-26.323-9.383-26.195-16.701c0.054-3.075-0.668-6.099,3.124-8.139
		c16.887-9.087,28.92-23.288,27.622-42.437c-1.426-21.058-37.87-17.497-26.096,0.362c4.29,6.507,11.57,15.531,4.566,15.033
		c-7.759-0.551-15.002-2.352-19.179-9.959c-0.79-1.439-0.876-3.892-3.449-3.284c-2.29,0.542-1.946,2.134-1.946,8.028
		C1300.63,1368.492,1297.387,1372.336,1309.898,1371.89z M225.571,343.803c-53.418-1.36-40.348,30.473-28.5,37.439
		c10.289,6.049,15.337,2.816,17.21,7.138c4.007,9.244-5.875,10.427-15.987,19.94c-14.334,13.485-20.8,35.296-4,46.8
		c5.967,4.086,2.373,4.949,18.358-1.883c0.924-0.395,1.791-9.746-1.597-13.582c-2.502-2.833-4.772-5.881-7.007-8.934
		c-0.747-1.02-1.901-2.214-0.557-3.693c0.993-1.093,2.034-1.76,3.643-1.441c8.16,1.619,15.405,4.435,18.196,13.353
		c0.464,1.482,0.709,3.041,3.118,2.857c1.862-0.142,1.645-1.788,1.646-6.278C230.122,334.919,231.747,343.961,225.571,343.803z
		 M225.604,1277.606c-5.038,16.051-28.613,15.553-21.702,6.182c7.807-10.585,10.384-10.943,9.225-15.931
		c-2.55-10.978-23.233-11.896-27.759,5.045c-7.341,27.479,27.99,44.151,29.27,51.513c0.53,3.049-0.145,4.511-3.303,5.063
		c-23.611,4.124-50.373,42.816,13.496,42.447c5.176-0.03,5.239-0.089,5.251-5.345
		C230.192,1321.024,232.369,1256.056,225.604,1277.606z M423.454,72.796c67.057,15.537,52.871,31.916,80.69,29.474
		c4.649-0.408,5.282-1.2,2.966-5.195C495.971,77.864,445.729,73.897,423.454,72.796z M428.455,1642.007
		c0.026,0.167,0.052,0.335,0.079,0.502c14.977,0,67.073-4.689,78.463-24.614c3.662-6.406-1.486-4.19-14.456-4.747
		c-3.21-0.138-5.682,0.938-8.045,3.108C466.774,1632.53,448.673,1637.744,428.455,1642.007z M1096.323,74.214
		c-68.133,2.96-78.667,27.694-70.553,27.963c14.841,0.491,17.154,0.446,21.569-3.343C1066.374,82.497,1082.84,78.36,1096.323,74.214
		z M254.837,1480.013c-9.164-9.763-26.388-10.993-35.93-2.543C231.521,1471.979,242.516,1477.948,254.837,1480.013z
		 M1306.453,240.913c-10.54-0.182-19.32-3.966-28.768-4.307c5.503,5.318,12.86,5.734,19.721,7.38
		C1300.501,244.729,1303.039,243.318,1306.453,240.913z"/>
	<path d="M788.76,213.041c45.498,8.68,73.818-23.265,134.623-36.897c69.652-15.615,69.39-16.279,76.411-13.699
		c2.697,0.991,5.51,1.241,8.234,0.421c21.329-6.423,92.038-0.953,177.934,71.162c8.281,6.953,56.424,64.747,58.955,149.881
		c5.805,195.274-84.891,285.28-63.864,346.772c6.052,17.7,24.783,26.251,37.437,21.301c12.017-4.701,12.468-11.989,16.833-6.239
		c74.851,98.585,8.239,234.86-4.045,225.107c-20.867-16.57-39.54-7.767-46.791,7.218c-30.168,62.344,61.542,155.662,60.721,337.923
		c-0.017,3.739-3.165,6.577-1.951,10.293c5.119,15.667,3.234,98.46-66.562,162.597c-26.467,24.321-58.936,42.332-64.334,44.24
		c-108.945,38.508-184.365,17.55-273.623-28.233c-7.072-3.628-8.72-3.246-45.456-2.906c-9.547,0.088-1.704,3.507,6.633,25.135
		c7.115,18.458-4.254,40.748-20.103,43.392c-38.5,6.424-66.864-15.956-40.963-61.862c1.028-1.822,2.778-3.396,2.653-5.882
		c-1.875-1.291-3.918-0.784-5.829-0.796c-31.628-0.189-32.472-0.632-39,2.49c-169.46,81.028-245.823,56.879-343.022-15.469
		c-21.094-15.701-58.567-68.719-66.189-137.539c-10.231-92.376,16.812-201.152,54.25-291.518
		c9.264-22.362,15.361-56.578,7.472-77.003c-6.415-16.608-24.371-23.575-35.261-19.854c-14.711,5.026-13.138,14.263-20.78,3.345
		c-38.352-54.795-48.542-148.583,1.092-219.742c2.848-4.083,2.902-4.063,6.724-1.12c7.305,5.623,9.071,9.734,18.771,8.149
		c23.643-3.862,41.729-20.997,29.058-73.854c-19.657-81.995-46.177-106.267-58.217-202.793
		c-7.01-56.202-9.461-123.985,11.277-176.595c37.22-94.419,150.741-147.465,241.61-137.949c53.1,5.561,102.234,23.46,149.112,48.255
		c3.627,1.918,7.191,2.967,11.344,2.892c39.197-0.706,40.883,2.097,36.787-4.72c-53.129-88.436,93.452-83.374,55.316-9.219
		C793.843,203.949,791.474,208.076,788.76,213.041z M299.629,955.163c31.083-18.761,77.105,15.607,63.848,68.056
		c-31.009,122.688-149.716,366.806,29.287,479.216c104.176,65.42,198.304,39.072,305.893-11.316
		c6.502-3.044-0.155-2.628,54.536-2.371c16.825,0.079-34.325,60.402,2.352,68.852c19.561,4.506,38.834-4.486,32.376-23.821
		c-16.454-49.259-17.181-45.068-8.067-45.07c54.359-0.018,53.268-0.846,59.23,2.561c195.676,111.802,352.406,20.712,386.613-112.698
		c36.838-143.668-50.362-295.388-58.151-358.627c-0.148-1.199-7.453-26.892,10.667-53.53c11.354-16.691,31.283-20.352,40.301-15.489
		c3.141,1.694,6.558,2.883,9.876,4.241c4.181,1.711,4.257,1.719,6.321-2.292c27.338-53.14,31.864-111.371,5.87-179.951
		c-3.103-8.187-6.736-16.365-10.776-11.974c-2.823,3.069-14.994,8.105-27.77,3.321c-61.489-23.026-36.764-80.877,17.539-239.08
		c2.587-7.536,25.017-113.041,8.939-183.584c-24.188-106.126-118.268-165.341-218.287-167.594
		c-57.955-1.305-121.139,23.333-172.249,50.141c-6.041,3.168-0.988,2.985-58.653,2.631c-8.897-0.055-7.124,0.5,8.963-44.776
		c0.942-2.65,1.633-5.29,1.506-8.154c-0.212-4.829-10.455-16.336-15.295-16.573c-5.364-0.263-10.774-0.479-16.123,0.293
		c-13.351,1.926-20.115,13.076-15.684,25.919c16.16,46.843,18.185,43.327,6.91,43.333c-42.327,0.024-42.879,0.988-52.003-3.278
		c-52.266-24.438-119.612-50.387-177.114-49.625c-85.049,1.128-147.729,38.51-194.489,109.2
		c-15.896,24.031-22.545,54.491-28.064,99.191c-13.886,112.464,60.823,271.104,66.02,315.313
		c3.936,33.492-3.264,56.982-39.056,68.734c-3.644,1.197-14.944-1.125-22.952-5.313c-3.485-1.823-3.826-1.812-6.217,3.435
		c-28.748,63.089-32.878,129.348,2.294,188.559C298.419,953.708,298.961,954.288,299.629,955.163z"/>
</g>
</svg>
