<?xml version="1.0" encoding="utf-8"?><!-- Uploaded to: SVG Repo, www.svgrepo.com, Generator: SVG Repo Mixer Tools -->
<svg width="800px" height="800px" viewBox="0 0 24 24" fill="none" xmlns="http://www.w3.org/2000/svg">
<path d="M11.6985 5.865C11.2843 5.8658 10.9492 6.20224 10.95 6.61645C10.9508 7.03066 11.2872 7.3658 11.7015 7.365L11.6985 5.865ZM14.6084 7.515L15.0319 6.89598L15.0317 6.89586L14.6084 7.515ZM15.4422 9.42387C15.668 9.77112 16.1325 9.86956 16.4798 9.64375C16.827 9.41793 16.9255 8.95338 16.6997 8.60613L15.4422 9.42387ZM10.95 6.615C10.95 7.02921 11.2858 7.365 11.7 7.365C12.1142 7.365 12.45 7.02921 12.45 6.615H10.95ZM12.45 5C12.45 4.58579 12.1142 4.25 11.7 4.25C11.2858 4.25 10.95 4.58579 10.95 5H12.45ZM11.6985 7.365C12.1128 7.3658 12.4492 7.03066 12.45 6.61645C12.4508 6.20224 12.1157 5.8658 11.7015 5.865L11.6985 7.365ZM8.79157 7.515L8.36829 6.89586L8.36812 6.89598L8.79157 7.515ZM6.70033 8.60613C6.47451 8.95338 6.57296 9.41793 6.9202 9.64375C7.26745 9.86956 7.73201 9.77112 7.95782 9.42387L6.70033 8.60613ZM16.7006 8.60609C16.4748 8.25886 16.0102 8.16044 15.663 8.38628C15.3158 8.61211 15.2173 9.07667 15.4432 9.42391L16.7006 8.60609ZM16.2004 11.9986C16.1996 12.4128 16.5347 12.7492 16.9489 12.75C17.3631 12.7508 17.6996 12.4157 17.7004 12.0014L16.2004 11.9986ZM15.6476 8.39926C15.3064 8.63415 15.2202 9.10115 15.4551 9.44232C15.69 9.78349 16.157 9.86964 16.4982 9.63474L15.6476 8.39926ZM17.9753 8.61774C18.3165 8.38285 18.4026 7.91585 18.1677 7.57468C17.9328 7.23351 17.4659 7.14736 17.1247 7.38226L17.9753 8.61774ZM17.7004 11.9986C17.6996 11.5844 17.3632 11.2492 16.949 11.25C16.5348 11.2508 16.1996 11.5872 16.2004 12.0014L17.7004 11.9986ZM15.444 14.5743C15.2183 14.9216 15.3169 15.3861 15.6642 15.6119C16.0115 15.8376 16.476 15.739 16.7017 15.3917L15.444 14.5743ZM16.9504 11.25C16.5362 11.25 16.2004 11.5858 16.2004 12C16.2004 12.4142 16.5362 12.75 16.9504 12.75V11.25ZM18.525 12.75C18.9392 12.75 19.275 12.4142 19.275 12C19.275 11.5858 18.9392 11.25 18.525 11.25V12.75ZM16.9504 12.75C17.3646 12.75 17.7004 12.4142 17.7004 12C17.7004 11.5858 17.3646 11.25 16.9504 11.25V12.75ZM13.8001 11.25C13.3859 11.25 13.0501 11.5858 13.0501 12C13.0501 12.4142 13.3859 12.75 13.8001 12.75V11.25ZM16.7006 15.3919C16.9265 15.0446 16.828 14.5801 16.4808 14.3543C16.1335 14.1284 15.669 14.2269 15.4432 14.5741L16.7006 15.3919ZM14.6094 16.483L15.0327 17.1021L15.0329 17.102L14.6094 16.483ZM11.7024 16.633C11.2882 16.6322 10.9518 16.9673 10.951 17.3815C10.9502 17.7958 11.2853 18.1322 11.6995 18.133L11.7024 16.633ZM16.4982 14.3653C16.157 14.1304 15.69 14.2165 15.4551 14.5577C15.2202 14.8989 15.3064 15.3658 15.6476 15.6007L16.4982 14.3653ZM17.1247 16.6177C17.4659 16.8526 17.9328 16.7665 18.1677 16.4253C18.4026 16.0841 18.3165 15.6172 17.9753 15.3823L17.1247 16.6177ZM12.45 17.385C12.45 16.9708 12.1142 16.635 11.7 16.635C11.2858 16.635 10.95 16.9708 10.95 17.385H12.45ZM10.95 19C10.95 19.4142 11.2858 19.75 11.7 19.75C12.1142 19.75 12.45 19.4142 12.45 19H10.95ZM11.7015 18.135C12.1157 18.1342 12.4508 17.7978 12.45 17.3835C12.4492 16.9693 12.1128 16.6342 11.6985 16.635L11.7015 18.135ZM8.79157 16.485L8.36812 17.104L8.36829 17.1041L8.79157 16.485ZM7.95782 14.5761C7.73201 14.2289 7.26745 14.1304 6.9202 14.3563C6.57296 14.5821 6.47451 15.0466 6.70033 15.3939L7.95782 14.5761ZM10.95 17.385C10.95 17.7992 11.2858 18.135 11.7 18.135C12.1142 18.135 12.45 17.7992 12.45 17.385H10.95ZM12.45 14.154C12.45 13.7398 12.1142 13.404 11.7 13.404C11.2858 13.404 10.95 13.7398 10.95 14.154H12.45ZM6.69938 15.3919C6.92521 15.7391 7.38977 15.8376 7.73701 15.6117C8.08424 15.3859 8.18266 14.9213 7.95682 14.5741L6.69938 15.3919ZM7.19962 12.0012C7.20027 11.587 6.86501 11.2506 6.4508 11.25C6.03659 11.2494 5.70027 11.5846 5.69963 11.9988L7.19962 12.0012ZM7.75244 15.6007C8.09361 15.3658 8.17976 14.8989 7.94487 14.5577C7.70997 14.2165 7.24298 14.1304 6.90181 14.3653L7.75244 15.6007ZM5.42468 15.3823C5.08351 15.6172 4.99736 16.0841 5.23226 16.4253C5.46715 16.7665 5.93415 16.8526 6.27532 16.6177L5.42468 15.3823ZM5.69963 12.0014C5.70039 12.4156 6.03679 12.7508 6.451 12.75C6.86522 12.7492 7.20039 12.4128 7.19962 11.9986L5.69963 12.0014ZM7.95598 9.4257C8.1817 9.07839 8.08313 8.61386 7.73582 8.38814C7.38851 8.16242 6.92398 8.26099 6.69826 8.6083L7.95598 9.4257ZM6.44963 12.75C6.86384 12.75 7.19963 12.4142 7.19963 12C7.19963 11.5858 6.86384 11.25 6.44963 11.25V12.75ZM4.875 11.25C4.46079 11.25 4.125 11.5858 4.125 12C4.125 12.4142 4.46079 12.75 4.875 12.75V11.25ZM6.90297 9.63487C7.24422 9.86966 7.71118 9.78337 7.94597 9.44213C8.18076 9.10088 8.09447 8.63392 7.75323 8.39913L6.90297 9.63487ZM6.27513 7.38213C5.93388 7.14734 5.46692 7.23363 5.23213 7.57487C4.99734 7.91612 5.08363 8.38308 5.42487 8.61787L6.27513 7.38213ZM7.74545 8.39385C7.40129 8.16335 6.93544 8.25549 6.70495 8.59965C6.47445 8.94381 6.56659 9.40966 6.91075 9.64015L7.74545 8.39385ZM9.5491 11.4072C9.89326 11.6376 10.3591 11.5455 10.5896 11.2013C10.8201 10.8572 10.728 10.3913 10.3838 10.1608L9.5491 11.4072ZM13.0502 12C13.0501 12.4142 13.3859 12.75 13.8001 12.75C14.2143 12.75 14.5501 12.4142 14.5502 12L13.0502 12ZM12.3205 9.94207L12.0937 10.657L12.0937 10.657L12.3205 9.94207ZM9.34244 10.3679C9.11265 10.7126 9.20575 11.1782 9.55038 11.408C9.89501 11.6378 10.3607 11.5447 10.5905 11.2001L9.34244 10.3679ZM14.5501 12C14.5501 11.5858 14.2144 11.25 13.8001 11.25C13.3859 11.25 13.0501 11.5858 13.0501 12H14.5501ZM11.7 13.404C11.2858 13.404 10.95 13.7398 10.95 14.154C10.95 14.5682 11.2858 14.904 11.7 14.904V13.404ZM11.7 14.904C12.1142 14.904 12.45 14.5682 12.45 14.154C12.45 13.7398 12.1142 13.404 11.7 13.404L11.7 14.904ZM9.84246 13.0051L9.17553 13.3482L9.17553 13.3482L9.84246 13.0051ZM10.5904 11.2001C10.8202 10.8555 10.7272 10.3898 10.3825 10.16C10.0379 9.93021 9.57227 10.0233 9.34246 10.3679L10.5904 11.2001ZM11.7015 7.365C12.5836 7.36329 13.448 7.63018 14.1851 8.13414L15.0317 6.89586C14.0465 6.22229 12.8864 5.8627 11.6985 5.865L11.7015 7.365ZM14.185 8.13402C14.6817 8.47383 15.1093 8.91192 15.4422 9.42387L16.6997 8.60613C16.26 7.93004 15.6935 7.34856 15.0319 6.89598L14.185 8.13402ZM12.45 6.615V5H10.95V6.615H12.45ZM11.7015 5.865C10.5136 5.8627 9.35353 6.22229 8.36829 6.89586L9.21486 8.13414C9.95201 7.63018 10.8164 7.36329 11.6985 7.365L11.7015 5.865ZM8.36812 6.89598C7.70652 7.34856 7.13998 7.93004 6.70033 8.60613L7.95782 9.42387C8.29075 8.91192 8.71829 8.47383 9.21503 8.13402L8.36812 6.89598ZM15.4432 9.42391C15.9379 10.1845 16.2021 11.0807 16.2004 11.9986L17.7004 12.0014C17.7027 10.7947 17.3554 9.61292 16.7006 8.60609L15.4432 9.42391ZM16.4982 9.63474L17.9753 8.61774L17.1247 7.38226L15.6476 8.39926L16.4982 9.63474ZM16.2004 12.0014C16.2021 12.9185 15.9381 13.8141 15.444 14.5743L16.7017 15.3917C17.3557 14.3854 17.7026 13.2045 17.7004 11.9986L16.2004 12.0014ZM16.9504 12.75H18.525V11.25H16.9504V12.75ZM16.9504 11.25H13.8001V12.75H16.9504V11.25ZM15.4432 14.5741C15.1102 15.0861 14.6827 15.5242 14.1859 15.864L15.0329 17.102C15.6945 16.6494 16.261 16.068 16.7006 15.3919L15.4432 14.5741ZM14.1861 15.8639C13.449 16.3678 12.5846 16.6347 11.7024 16.633L11.6995 18.133C12.8873 18.1353 14.0474 17.7757 15.0327 17.1021L14.1861 15.8639ZM15.6476 15.6007L17.1247 16.6177L17.9753 15.3823L16.4982 14.3653L15.6476 15.6007ZM10.95 17.385V19H12.45V17.385H10.95ZM11.6985 16.635C10.8164 16.6367 9.95201 16.3698 9.21486 15.8659L8.36829 17.1041C9.35353 17.7777 10.5136 18.1373 11.7015 18.135L11.6985 16.635ZM9.21503 15.866C8.71829 15.5262 8.29075 15.0881 7.95782 14.5761L6.70033 15.3939C7.13998 16.07 7.70652 16.6514 8.36812 17.104L9.21503 15.866ZM12.45 17.385V14.154H10.95V17.385H12.45ZM7.95682 14.5741C7.46245 13.814 7.19819 12.9184 7.19962 12.0012L5.69963 11.9988C5.69774 13.2048 6.04497 14.3857 6.69938 15.3919L7.95682 14.5741ZM6.90181 14.3653L5.42468 15.3823L6.27532 16.6177L7.75244 15.6007L6.90181 14.3653ZM7.19962 11.9986C7.19794 11.0815 7.4619 10.1859 7.95598 9.4257L6.69826 8.6083C6.04426 9.61461 5.69741 10.7955 5.69963 12.0014L7.19962 11.9986ZM6.44963 11.25H4.875V12.75H6.44963V11.25ZM7.75323 8.39913L6.27513 7.38213L5.42487 8.61787L6.90297 9.63487L7.75323 8.39913ZM6.91075 9.64015L9.5491 11.4072L10.3838 10.1608L7.74545 8.39385L6.91075 9.64015ZM14.5502 12C14.5502 10.7392 13.7485 9.6082 12.5472 9.22717L12.0937 10.657C12.652 10.8341 13.0502 11.3718 13.0502 12L14.5502 12ZM12.5472 9.22717C11.3422 8.84494 10.0437 9.31624 9.34244 10.3679L10.5905 11.2001C10.9289 10.6925 11.5392 10.4811 12.0937 10.657L12.5472 9.22717ZM13.0501 12C13.0501 12.7934 12.4279 13.404 11.7 13.404V14.904C13.2919 14.904 14.5501 13.5858 14.5501 12H13.0501ZM11.7 13.404C11.209 13.404 10.7476 13.1252 10.5094 12.6621L9.17553 13.3482C9.6643 14.2984 10.6329 14.904 11.7 14.904L11.7 13.404ZM10.5094 12.6621C10.27 12.1967 10.3022 11.6324 10.5904 11.2001L9.34246 10.3679C8.75117 11.2546 8.68787 12.4002 9.17553 13.3482L10.5094 12.6621Z" fill="#000000"/>
</svg>