<?xml version="1.0" encoding="iso-8859-1"?>
<!-- Uploaded to: SVG Repo, www.svgrepo.com, Generator: SVG Repo Mixer Tools -->
<svg fill="#000000" height="800px" width="800px" version="1.1" id="Layer_1" xmlns="http://www.w3.org/2000/svg" xmlns:xlink="http://www.w3.org/1999/xlink" 
	 viewBox="0 0 512 512" xml:space="preserve">
<g>
	<g>
		<path d="M255.181,183.34v-65.414c15.99-4.073,27.412-18.354,27.412-35.347s-11.422-31.273-27.412-35.347V0h-18.275v47.233
			c-13.706,4.073-27.412,18.354-27.412,35.347s13.706,31.273,27.412,35.347v74.301c0,5.046,4.662,9.137,9.708,9.137
			c80.612,0,146.483,65.585,146.483,146.197s-65.442,146.066-146.054,146.066c-48.85,0-93.756-23.055-120.82-64.173h57.001
			c5.046,0,9.137-4.091,9.137-9.137c0-5.046-4.091-9.137-9.137-9.137h-73.174c-3.208,0-6.184,1.813-7.835,4.566
			c-1.651,2.753-1.74,6.236-0.228,9.069C130.668,478.573,186.304,512,247.186,512c90.691,0,163.901-73.764,163.901-164.455
			C411.087,259.92,341.986,188.1,255.181,183.34z M228.912,82.579c0-10.079,8.196-18.275,18.275-18.275
			c10.079,0,18.275,8.196,18.275,18.275s-8.196,18.275-18.275,18.275C237.107,100.854,228.912,92.658,228.912,82.579z"/>
	</g>
</g>
</svg>